HIERARCHY
ROOT pelvis
{
  OFFSET 0 100 0
  CHANNELS 6 Xposition Yposition Zposition Zrotation Xrotation Yrotation
  JOINT pelvis_right_femur
  {
    OFFSET -10.78128 -3.44521 -0.5502486
    CHANNELS 3 Zrotation Xrotation Yrotation
    JOINT right_femur_tibia
    {
      OFFSET -0.8047443 -44.0398 -0.1307829
      CHANNELS 3 Zrotation Xrotation Yrotation
      JOINT right_tibia_foot
      {
        OFFSET 3.006224 -47.83518 -5
        CHANNELS 3 Zrotation Xrotation Yrotation
        End Site
        {
          OFFSET 0 -5 15
        }
      }
    }
  }
  JOINT pelvis_left_femur
  {
    OFFSET 10.78128 -3.44521 -0.5502486
    CHANNELS 3 Zrotation Xrotation Yrotation
    JOINT left_femur_tibia
    {
      OFFSET 0.8047443 -44.0398 -0.1307829
      CHANNELS 3 Zrotation Xrotation Yrotation
      JOINT left_tibia_foot
      {
        OFFSET -4.370144 -48.10324 -4.275266
        CHANNELS 3 Zrotation Xrotation Yrotation
        End Site
        {
          OFFSET 0 -5 15
        }
      }
    }
  }
  JOINT pelvis_spine1
  {
    OFFSET 0 6.468898 -3.129235
    CHANNELS 3 Zrotation Xrotation Yrotation
    JOINT spine1
    {
      OFFSET 0 23.15396 4.99043
      CHANNELS 3 Zrotation Xrotation Yrotation
      JOINT spine2
      {
        OFFSET 0 20.79997 -5.064912
        CHANNELS 3 Zrotation Xrotation Yrotation
        JOINT neck
        {
          OFFSET 0 14.38658 9.616178
          CHANNELS 3 Zrotation Xrotation Yrotation
          End Site
          {
            OFFSET 0 20 0
          }
        }
      }
      JOINT right_manubrium
      {
        OFFSET -5.722621 16.35077 3.967754
        CHANNELS 3 Zrotation Xrotation Yrotation
        JOINT right_clavicle
        {
          OFFSET -13.16364 1.694482 -4.693211
          CHANNELS 3 Zrotation Xrotation Yrotation
          JOINT right_humerus
          {
            OFFSET -28.5034 -0.3100689 -2.792744
            CHANNELS 3 Zrotation Xrotation Yrotation
            JOINT right_radius
            {
              OFFSET -25.15693 0.02248979 -1.271978
              CHANNELS 3 Zrotation Xrotation Yrotation
              End Site
              {
                OFFSET -15 0 0
              }
            }
          }
        }
      }
      JOINT left_manubrium
      {
        OFFSET 5.722621 16.35077 3.967754
        CHANNELS 3 Zrotation Xrotation Yrotation
        JOINT left_clavicle
        {
          OFFSET 13.16364 1.694482 -4.693211
          CHANNELS 3 Zrotation Xrotation Yrotation
          JOINT left_humerus
          {
            OFFSET 29.39168 -1.063119 -2.237045
            CHANNELS 3 Zrotation Xrotation Yrotation
            JOINT left_radius
            {
              OFFSET 24.59957 -0.9528479 0.9047498
              CHANNELS 3 Zrotation Xrotation Yrotation
              End Site
              {
                OFFSET 15 -0 -0
              }
            }
          }
        }
      }
    }
  }
}
MOTION
Frames: 17
Frame Time: 0.0416666666667
-106.2313 53.80802 330.5003 8.826775 -12.61524 36.86631 6.802298 -0.7998529 4.042975 -0 28.08339 -0 -18.35499 2.908713 0.7147094 1.335247 -8.355152 -0.5080654 -0 44.65472 -0 28.71876 6.423155 9.227814 1.868495 -3.689445 7.781491 0.1502493 17.38643 -5.853444 1.944173 17.4558 -0.6757065 -2.167293 -18.2974 3.801739 -1.57424 -32.97368 13.0323 87.45923 15.70475 -6.484427 -0 0 34.34614 -24.81392 20.36991 19.33 1.210354 -19.82186 -6.215008 -93.17181 9.372702 40.25766 0 0 -6.635477 4.963629 14.47793 9.010408
-101.4649 53.90763 334.0438 8.650003 -12.73605 36.06073 6.802298 -0.7998529 4.042975 -0 28.08339 -0 -18.35499 2.908713 0.7147094 1.335247 -8.355152 -0.5080654 -0 44.65472 -0 28.71876 6.423155 9.227814 1.868495 -3.689445 7.781491 0.1502493 17.38643 -5.853444 1.944173 17.4558 -0.6757065 -2.167293 -18.2974 3.801739 -1.57424 -32.97368 13.0323 87.45923 15.70475 -6.484427 -0 0 34.34614 -24.81392 20.36991 19.33 1.210354 -19.82186 -6.215008 -93.17181 9.372702 40.25766 0 0 -6.635477 4.963629 14.47793 9.010408
-96.74814 54.00723 337.653 8.471423 -12.85442 35.2544 6.802298 -0.7998529 4.042975 -0 28.08339 -0 -18.35499 2.908713 0.7147094 1.335247 -8.355152 -0.5080654 -0 44.65472 -0 28.71876 6.423155 9.227814 1.868495 -3.689445 7.781491 0.1502493 17.38643 -5.853444 1.944173 17.4558 -0.6757065 -2.167293 -18.2974 3.801739 -1.57424 -32.97368 13.0323 87.45923 15.70475 -6.484427 -0 0 34.34614 -24.81392 20.36991 19.33 1.210354 -19.82186 -6.215008 -93.17181 9.372702 40.25766 0 0 -6.635477 4.963629 14.47793 9.010408
-92.0819 54.10684 341.3274 8.291067 -12.97032 34.44731 6.802298 -0.7998529 4.042975 -0 28.08339 -0 -18.35499 2.908713 0.7147094 1.335247 -8.355152 -0.5080654 -0 44.65472 -0 28.71876 6.423155 9.227814 1.868495 -3.689445 7.781491 0.1502493 17.38643 -5.853444 1.944173 17.4558 -0.6757065 -2.167293 -18.2974 3.801739 -1.57424 -32.97368 13.0323 87.45923 15.70475 -6.484427 -0 0 34.34614 -24.81392 20.36991 19.33 1.210354 -19.82186 -6.215008 -93.17181 9.372702 40.25766 0 0 -6.635477 4.963629 14.47793 9.010408
-87.4671 54.20644 345.0662 8.10897 -13.08374 33.63947 6.802298 -0.7998529 4.042975 -0 28.08339 -0 -18.35499 2.908713 0.7147094 1.335247 -8.355152 -0.5080654 -0 44.65472 -0 28.71876 6.423155 9.227814 1.868495 -3.689445 7.781491 0.1502493 17.38643 -5.853444 1.944173 17.4558 -0.6757065 -2.167293 -18.2974 3.801739 -1.57424 -32.97368 13.0323 87.45923 15.70475 -6.484427 -0 0 34.34614 -24.81392 20.36991 19.33 1.210354 -19.82186 -6.215008 -93.17181 9.372702 40.25766 0 0 -6.635477 4.963629 14.47793 9.010408
-82.90463 54.30605 348.8686 7.925165 -13.19464 32.8309 6.802298 -0.7998529 4.042975 -0 28.08339 -0 -18.35499 2.908713 0.7147094 1.335247 -8.355152 -0.5080654 -0 44.65472 -0 28.71876 6.423155 9.227814 1.868495 -3.689445 7.781491 0.1502493 17.38643 -5.853444 1.944173 17.4558 -0.6757065 -2.167293 -18.2974 3.801739 -1.57424 -32.97368 13.0323 87.45923 15.70475 -6.484427 -0 0 34.34614 -24.81392 20.36991 19.33 1.210354 -19.82186 -6.215008 -93.17181 9.372702 40.25766 0 0 -6.635477 4.963629 14.47793 9.010408
-78.39537 54.40565 352.734 7.739687 -13.30301 32.02161 6.802298 -0.7998529 4.042975 -0 28.08339 -0 -18.35499 2.908713 0.7147094 1.335247 -8.355152 -0.5080654 -0 44.65472 -0 28.71876 6.423155 9.227814 1.868495 -3.689445 7.781491 0.1502493 17.38643 -5.853444 1.944173 17.4558 -0.6757065 -2.167293 -18.2974 3.801739 -1.57424 -32.97368 13.0323 87.45923 15.70475 -6.484427 -0 0 34.34614 -24.81392 20.36991 19.33 1.210354 -19.82186 -6.215008 -93.17181 9.372702 40.25766 0 0 -6.635477 4.963629 14.47793 9.010408
-73.94019 54.50526 356.6617 7.552573 -13.40881 31.2116 6.802298 -0.7998529 4.042975 -0 28.08339 -0 -18.35499 2.908713 0.7147094 1.335247 -8.355152 -0.5080654 -0 44.65472 -0 28.71876 6.423155 9.227814 1.868495 -3.689445 7.781491 0.1502493 17.38643 -5.853444 1.944173 17.4558 -0.6757065 -2.167293 -18.2974 3.801739 -1.57424 -32.97368 13.0323 87.45923 15.70475 -6.484427 -0 0 34.34614 -24.81392 20.36991 19.33 1.210354 -19.82186 -6.215008 -93.17181 9.372702 40.25766 0 0 -6.635477 4.963629 14.47793 9.010408
-69.53995 54.60487 360.6507 7.363856 -13.51203 30.40088 6.802298 -0.7998529 4.042975 -0 28.08339 -0 -18.35499 2.908713 0.7147094 1.335247 -8.355152 -0.5080654 -0 44.65472 -0 28.71876 6.423155 9.227814 1.868495 -3.689445 7.781491 0.1502493 17.38643 -5.853444 1.944173 17.4558 -0.6757065 -2.167293 -18.2974 3.801739 -1.57424 -32.97368 13.0323 87.45923 15.70475 -6.484427 -0 0 34.34614 -24.81392 20.36991 19.33 1.210354 -19.82186 -6.215008 -93.17181 9.372702 40.25766 0 0 -6.635477 4.963629 14.47793 9.010408
-65.19549 54.70447 364.7005 7.173575 -13.61264 29.58947 6.802298 -0.7998529 4.042975 -0 28.08339 -0 -18.35499 2.908713 0.7147094 1.335247 -8.355152 -0.5080654 -0 44.65472 -0 28.71876 6.423155 9.227814 1.868495 -3.689445 7.781491 0.1502493 17.38643 -5.853444 1.944173 17.4558 -0.6757065 -2.167293 -18.2974 3.801739 -1.57424 -32.97368 13.0323 87.45923 15.70475 -6.484427 -0 0 34.34614 -24.81392 20.36991 19.33 1.210354 -19.82186 -6.215008 -93.17181 9.372702 40.25766 0 0 -6.635477 4.963629 14.47793 9.010408
-60.90765 54.80408 368.8101 6.981767 -13.71062 28.77738 6.802298 -0.7998529 4.042975 -0 28.08339 -0 -18.35499 2.908713 0.7147094 1.335247 -8.355152 -0.5080654 -0 44.65472 -0 28.71876 6.423155 9.227814 1.868495 -3.689445 7.781491 0.1502493 17.38643 -5.853444 1.944173 17.4558 -0.6757065 -2.167293 -18.2974 3.801739 -1.57424 -32.97368 13.0323 87.45923 15.70475 -6.484427 -0 0 34.34614 -24.81392 20.36991 19.33 1.210354 -19.82186 -6.215008 -93.17181 9.372702 40.25766 0 0 -6.635477 4.963629 14.47793 9.010408
-56.67726 54.90368 372.9789 6.788469 -13.80594 27.96463 6.802298 -0.7998529 4.042975 -0 28.08339 -0 -18.35499 2.908713 0.7147094 1.335247 -8.355152 -0.5080654 -0 44.65472 -0 28.71876 6.423155 9.227814 1.868495 -3.689445 7.781491 0.1502493 17.38643 -5.853444 1.944173 17.4558 -0.6757065 -2.167293 -18.2974 3.801739 -1.57424 -32.97368 13.0323 87.45923 15.70475 -6.484427 -0 0 34.34614 -24.81392 20.36991 19.33 1.210354 -19.82186 -6.215008 -93.17181 9.372702 40.25766 0 0 -6.635477 4.963629 14.47793 9.010408
-52.50513 55.00329 377.206 6.593718 -13.8986 27.15121 6.802298 -0.7998529 4.042975 -0 28.08339 -0 -18.35499 2.908713 0.7147094 1.335247 -8.355152 -0.5080654 -0 44.65472 -0 28.71876 6.423155 9.227814 1.868495 -3.689445 7.781491 0.1502493 17.38643 -5.853444 1.944173 17.4558 -0.6757065 -2.167293 -18.2974 3.801739 -1.57424 -32.97368 13.0323 87.45923 15.70475 -6.484427 -0 0 34.34614 -24.81392 20.36991 19.33 1.210354 -19.82186 -6.215008 -93.17181 9.372702 40.25766 0 0 -6.635477 4.963629 14.47793 9.010408
-48.39206 55.1029 381.4905 6.397555 -13.98855 26.33716 6.802298 -0.7998529 4.042975 -0 28.08339 -0 -18.35499 2.908713 0.7147094 1.335247 -8.355152 -0.5080654 -0 44.65472 -0 28.71876 6.423155 9.227814 1.868495 -3.689445 7.781491 0.1502493 17.38643 -5.853444 1.944173 17.4558 -0.6757065 -2.167293 -18.2974 3.801739 -1.57424 -32.97368 13.0323 87.45923 15.70475 -6.484427 -0 0 34.34614 -24.81392 20.36991 19.33 1.210354 -19.82186 -6.215008 -93.17181 9.372702 40.25766 0 0 -6.635477 4.963629 14.47793 9.010408
-44.33885 55.2025 385.8318 6.200018 -14.0758 25.52247 6.802298 -0.7998529 4.042975 -0 28.08339 -0 -18.35499 2.908713 0.7147094 1.335247 -8.355152 -0.5080654 -0 44.65472 -0 28.71876 6.423155 9.227814 1.868495 -3.689445 7.781491 0.1502493 17.38643 -5.853444 1.944173 17.4558 -0.6757065 -2.167293 -18.2974 3.801739 -1.57424 -32.97368 13.0323 87.45923 15.70475 -6.484427 -0 0 34.34614 -24.81392 20.36991 19.33 1.210354 -19.82186 -6.215008 -93.17181 9.372702 40.25766 0 0 -6.635477 4.963629 14.47793 9.010408
-40.34628 55.30211 390.2288 6.001148 -14.1603 24.70718 6.802298 -0.7998529 4.042975 -0 28.08339 -0 -18.35499 2.908713 0.7147094 1.335247 -8.355152 -0.5080654 -0 44.65472 -0 28.71876 6.423155 9.227814 1.868495 -3.689445 7.781491 0.1502493 17.38643 -5.853444 1.944173 17.4558 -0.6757065 -2.167293 -18.2974 3.801739 -1.57424 -32.97368 13.0323 87.45923 15.70475 -6.484427 -0 0 34.34614 -24.81392 20.36991 19.33 1.210354 -19.82186 -6.215008 -93.17181 9.372702 40.25766 0 0 -6.635477 4.963629 14.47793 9.010408
-36.41511 55.40171 394.6809 5.800984 -14.24206 23.89128 6.802298 -0.7998529 4.042975 -0 28.08339 -0 -18.35499 2.908713 0.7147094 1.335247 -8.355152 -0.5080654 -0 44.65472 -0 28.71876 6.423155 9.227814 1.868495 -3.689445 7.781491 0.1502493 17.38643 -5.853444 1.944173 17.4558 -0.6757065 -2.167293 -18.2974 3.801739 -1.57424 -32.97368 13.0323 87.45923 15.70475 -6.484427 -0 0 34.34614 -24.81392 20.36991 19.33 1.210354 -19.82186 -6.215008 -93.17181 9.372702 40.25766 0 0 -6.635477 4.963629 14.47793 9.010408
